<?xml version="1.0" encoding="UTF-8"?>
<svg id="Layer_2" xmlns="http://www.w3.org/2000/svg" version="1.1" viewBox="0 0 816 534.9">
  <!-- Generator: Adobe Illustrator 30.1.0, SVG Export Plug-In . SVG Version: 2.1.1 Build 136)  -->
  <defs>
    <style>
      .st0 {
        fill: #fff;
      }
    </style>
  </defs>
  <g id="Layer_1-2">
    <g>
      <path class="st0" d="M-53.1,2.6c-2.1-9-10.7-39.1-23.2-34-3.3,1.3-5.4,5.5-4.8,9.8,2.2,14.5,6.9,35.2.9,49-1.8,4.2-5.6,5.7-9.9,3.9-8-3.3-13.1-13-20.7-8-16.2,10.4,26.9,38.6,3.2,85.5-6.9,13.7-16.1,25.6-28.3,34.9-17.8,13.6-41.6,21-60.4,4.5-.2-.2-.4-.3-.6-.5-2.7-2.4-6.7-2.8-9.8-1.1l-13.1,7c-29.5,15.9-45.7,48.4-41,81.6.7,4.8-.5,8.6-1.4,13.2-.6,2.9.4,6,2.6,8,8.5,7.9,30.1,13.7,42.1,15.6,3,.5,5.5,2.4,6.6,5.2,6.2,15.2,16.6,27.7,33.8,29.8,4.7.6,8.6-3.7,9.3-7.2.7-4.2-.5-6.6-2.7-8.4-6.2-5-3.2-14.9,4.7-15.4,2-.1,4.1-.3,6.1-.7,6.8-1.2,13.2-6.3,14-13.2,1.3-11.1-9.2-20.4-1.3-31.1,6.7-9,14-16.7,22.7-24.3C-66.1,156.3-35.1,79.2-53.1,2.6ZM-202.8,222.3c-5.4,7.7-15.9,10.8-24.7,5.6-10.6-6.2-13.2-20.6-4.8-29.7,7.1-7.7,18.6-8,26.2-1.5,7.5,6.3,9,17.3,3.2,25.6Z"/>
      <g>
        <g>
          <path class="st0" d="M-450.6,175c-9,23-35.2,33-57.8,38.2-20.3,4.7-40.1,7.1-61.1,8.9-56.7,4.6-112.4,6.5-170,8.2-26.4.8-78.2,1.6-100.9-5.6-4.4-1.4-7.8-5.4-7.5-10.4,2.7-43.3,22.4-82.5,54.9-110.9,16.2-14.2,33.7-25.3,53.1-34.9,52.8-26.1,112-37.7,170.6-40.7,28.9-1.5,76-2.5,99.9,16.5,1.2.9,2.1,2.2,2.7,3.6,12.8,32.6,19,66.4,19.4,101.3.1,9,0,17.5-3.2,25.8h0Z"/>
          <g>
            <path class="st0" d="M-401.8,231c3.5,3.3,3.7,8.9.4,12.3-6.4,6.6-13.5,12.2-20.6,18-4.9,4-9.5,8.1-14.5,11.9-3.6,2.7-8.7,2.2-11.7-1.2-3.8-4.3-8.6-7.3-14.2-9.3-8.6-3-17.1-5.4-26-7.7-16-4.2-32,2.4-40.6,16.5-5.6,9.3-9.9,18.9-14.6,28.9-1.4,2.9-4.2,4.8-7.3,5l-19,1.2c-3.7.2-7.2-2-8.6-5.4-4.5-11-14.6-17.4-26.5-20.8-19.8-5.7-54.4-15.2-74.2-14.9-8.9.1-16.7,3.1-23.4,8.6-4.1,3.4-8.1,6.3-11.9,10l-19.6,19.6c-1.8,1.8-4.4,2.7-6.9,2.5-37.8-3.3-74-12.9-89.6-47.9-2.7-6.1,2.3-12.8,8.9-12.1,7.2.8,14.3,1.2,21.7,1.5,25.3.8,49.5.5,75-.2,50.7-1.4,100.2-3.6,150.7-7.5,21.7-1.7,42.2-4.1,63.4-8.4,24-4.8,50-14.1,66-33.1,3.6-4.2,10.2-4,13.5.4l3,4c7.7,10.3,16.9,19,26.6,28h0Z"/>
            <path class="st0" d="M-590.5,310.7c-.2,4.9-3.2,9.1-7.7,11.8-22.2,13.4-56.5-5.4-81.4-10.3-2.8-.5-5.6.3-7.6,2.2-6,5.6-11,11.9-16.2,18.6l-48.3,62.6c-2.2,2.9-4.6,5-7.9,4.9-7.3-.2-9-8.1-12.1-5.9-29.7,21.5-53.5,6.2-73.1,35.9-3.3,5-10.8,5-14.8,2.2-4.8-3.3-5.6-9.5-2.7-14.8,5.5-10,14.2-17.1,24.4-22.4,17.6-9,29.7-6.7,42.9-12.4,4.3-1.9,6.1-6.8,4.6-11.3,0-.2-.1-.4-.2-.5-.5-2.2-.2-5.1,1.9-6.6,6-4.2,12.5-7.4,18.9-11.1,11.1-6.5,20.2-14.6,29.2-23.8,12.5-12.8,24.3-25.4,37.4-37.5,5.3-4.9,10.8-9.8,17.7-12,14.2-4.5,49.1,6,64.9,9.7,11.2,2.7,30.7,6.7,30.1,20.6h0Z"/>
            <g>
              <path class="st0" d="M-203.1,441c-4.5,1.8-11.1.9-13.5-4-4.7-9.6-11.7-17.2-22.7-20.8l-17-5.5c-8.3-2.7-15.3-7.2-21.3-13.2-3.5-3.5-9.3-3.2-12.6.5-4,4.4-9,7.1-12.9,4-4.8-3.8-.4-20.5-12.6-34.4-3.7-4.2-10.5-4-13.7.7s-7.9,7.7-12.2,5.3c-5.4-3-2.3-22.4-26.2-42.4l-27.7-23.2c-10.5-8.8-12.9-22.5-7-35.3,3.4-7.5,8-14.4,13.1-21.1,2.7-3.5,7.6-4.4,11.4-2.1,9.2,5.6,18.7,9.8,28.7,12.9,6.3,2,8.3,10,3.5,14.6-.3.3-.6.6-.9.9l-8.2,7.8c-3.8,3.6-3.6,9.7.5,13,17.3,14.1,35.1,26.6,53.7,38.7,8.2,5.3,15.5,10.9,22.1,17.9,6.1,6.5,9.2,14.4,12.9,22.4,6.1,13.1,25.7,14.1,39.8,20.8,13.1,6.2,23.9,16.4,28.9,30.2,2,5.4-1.5,10.7-5.9,12.5h0Z"/>
              <path class="st0" d="M-456.6,300.8c-10.8,20.4-40.7.6-44.3,4.1-.6.5-1.4,1.6-1.9,3l-27.1,78.6c-3.8,11-13,4.4-14.9,6.4-24.3,25.1-44.2,13.9-56.8,43.2-2.5,5.8-10.1,7.2-15,4.5-5.2-2.9-6.5-9-4-14.9,6.8-16.6,20.8-28.1,37.9-33.9,3.8-1.3,18.9-6.7,18.3-10.7-.3-1.8-5.4-3.7-5.3-7.3,0-1.9.8-4.3,2.2-5.9,9.9-11.4,17.7-23.2,24.2-36.8l23.9-49.9c4.6-9.6,14.5-15.5,25-13.4,9.9,2,19.1,5,28.5,8.2,4.9,1.7,8.8,5.8,10.4,9.4,2.5,5.5,1.2,10.8-1.3,15.5h0Z"/>
            </g>
          </g>
        </g>
        <path class="st0" d="M-135.2-75.2c-.4,3.9-4.4,7.9-9.1,8.2-10.4.7-20.2.5-30.7,2.4-21.6,3.9-41.5,13.3-56.5,29.6-19.9,21.8-28.7,50.9-25.1,80.1,3.3,26.5,20.8,49.4,39.2,67.5,3.1,3.1,5.7,6.2,6.5,10.8.5,3.3-.8,6.6-3.9,8.1-11.8,5.6-22.7,11.8-32.4,20.7-24.2,22.1-35.4,54.6-30.9,87.1.7,5-4.1,9.6-9.4,10.1-32.6,3.1-63.5-.5-89.4-20.4-16.4-12.6-30.5-27.3-43.1-43.7-6.8-8.8-9.8-18.9-9.8-30.1.2-37.3-5.9-73.5-18.7-108.4-1.2-3.3-1.8-7.1-.3-10.1,7.1-14.2,29.2-22,43.6-26.5,12.8-4,25-8.2,36.9-14.4,39.6-20.9,60.3-47.3,107.7-71.3,37-18.7,79-23.2,118.5-10.2,4.7,1.5,7.4,6.2,7,10.4h0Z"/>
      </g>
    </g>
  </g>
</svg>