<?xml version="1.0" encoding="UTF-8"?>
<svg id="Layer_2" data-name="Layer 2" xmlns="http://www.w3.org/2000/svg" viewBox="0 0 304.91 341.64">
  <defs>
    <style>
      .cls-1 {
        fill: #fff;
      }
    </style>
  </defs>
  <g id="Layer_1-2" data-name="Layer 1">
    <path class="cls-1" d="M304.32,92.09c-1.77-9.91-14.17-9.87-19.46-25.51-7.97-23.53-26.21-32.8-50.03-34.68-4.92-8.93-2.79-27.63-8.63-31.18-5.72-3.47-17.9,6.47-22.7,10.94-21.99,20.49-36.95,47.68-39.78,77.96-2.42,25.85.82,47.71-22.84,62.53-16.82,10.53-32.71,21.69-46.52,36.29-19.73,20.85-30.73,47.72-33.54,76.17-1.22,12.34-.96,23.6-.54,36.16-27.67-11.8-30.25-47.19-18.42-72.03,3.67-7.69,7.76-14.47,12.17-21.61,3.93-6.36,3.64-14.1-.74-19.5-4.35-5.36-11.38-7.63-18.29-5.33-5.55,1.86-9.94,5.63-13.2,10.64-9.24,14.21-15.95,29.45-19.63,46.24-5.89,26.91.19,55.02,18.23,76,14.5,16.87,35.25,25.99,57.66,26.06l132.59.4c3.21,0,5.6-1.57,6.36-4.54,2.96-11.6-4-22.73-15.45-26.19-5.51-1.66-10.87-1.9-16.97-2.53,11.92-21.27,16.95-42.05,5.14-65.27,5.98,1.37,8.78,5.85,11.48,10.1,8.45,13.32,9.07,29.06,4.81,44.47,19.35,5.76,30.13,23.55,26.27,43.59l38.33.19c5.26.03,9.35-3.24,10.41-8.29,2.49-11.86-4.9-23.05-16.69-26.01-2.95-.74-4.21-2.16-3.9-5.45l7.04-74.85c3.53-37.57-7.5-50.27-8.94-70.04-1.08-14.88,13.39-13.7,29.46-25.87,12.1-9.18,19.05-23.54,16.32-38.86ZM258.98,87.35c-5.37,1.46-10.49-1.62-12.04-6.38-1.68-5.19.85-11.03,6.78-12.56,5.86-1.52,10.87,2.5,11.99,6.99,1.4,5.55-1.89,10.63-6.73,11.95Z"/>
  </g>
</svg>