<?xml version="1.0" encoding="UTF-8"?>
<svg id="Layer_2" xmlns="http://www.w3.org/2000/svg" version="1.1" viewBox="0 0 287.3 335.4">
  <!-- Generator: Adobe Illustrator 30.1.0, SVG Export Plug-In . SVG Version: 2.1.1 Build 136)  -->
  <defs>
    <style>
      .st0 {
        fill: #fff;
      }
    </style>
  </defs>
  <g id="Layer_1-2">
    <g>
      <path class="st0" d="M268.2,335.4H19.4c-9.6-2.5-19.4-9.7-19.4-20.3v-91.5c0-10,.6-19.4.9-29.1l.5-15.5c.2-6.8,1.6-16.8,1.1-23.2,1.2-3.2,1-6.2,1.2-9.6,2.4-27.1,6.8-53.7,14.3-80.2h251.4c7.4,26.8,12,53.6,14.3,80.9.3,3.4,0,6.4,1.2,9.7-.8,3.4.2,6.5.4,9.7.3,4-.1,7.7.5,11.6.5,3.5,1.5,39.9,1.5,45.7v92c0,10.3-9.7,17-19,19.8h0ZM132.5,152c8.2-8.8,5.8-24.7-3.3-32.8-4.2-3.8-11.7-4.9-16-.6-9.5,9.3-5.2,28.3,4.7,34.5,4.5,2.8,10.7,3.1,14.6-1.1h0ZM169.7,152.9c9.8-6.4,13.9-25.1,4.5-34.3-4.4-4.3-11.8-3.1-16,.6-8.8,7.8-11.5,23.1-3.6,32.4,3.7,4.4,10.3,4.4,15.1,1.3h0ZM97.3,183.1c6.3-1.7,9.2-7.7,10-13.6,1.1-9.1-2.8-18.7-10.5-23.6-6.1-3.9-13-1.6-16.3,4.5-4.4,8-3,18.3,1.9,25.4,3.2,4.7,8.7,9,15,7.3h0ZM209.4,159c-.3-4.8-2.1-9.3-5.6-12.3-3.9-3.4-8.9-3.8-13.3-.9-7.6,5-11.6,14.5-10.5,23.7.8,6.1,4,12.3,10.3,13.7,11.1,2.6,20-12,19.1-24.2h0ZM170.1,239.4c5.1.6,9.9-2.1,12.6-5.5,3.4-4.4,3.1-9.3,2.5-14.6-1.7-14.7-7.9-28.4-18-39.1-6.2-6.5-13.6-12-22.9-12.2-9.6-.3-17.6,5.3-24.1,12.2-11.5,12.4-18.3,28.7-18.3,45.7,0,7.3,6.3,13.3,13.4,13.4,7.8.1,14.6-3.8,20.9-7.9,12.4-8.1,16.6,5.8,34,8h0ZM222.4,299.5c3-1.2,4.3-2.9,5.2-5.3v-13.3c-.9-2.6-2.6-4.5-5.5-5.3H65.1c-2.9.9-4.5,2.7-5.5,5.3v13.3c1,2.6,2.6,4.5,5.5,5.3h157.3Z"/>
      <path class="st0" d="M263.6,48H23.7s0-41.2,0-41.2C23.3,2.7,26.1-.4,30.6,0h226.2c4.5-.4,7.2,2.6,6.9,6.7v41.2s0,0,0,0Z"/>
    </g>
  </g>
</svg>