<?xml version="1.0" encoding="UTF-8"?>
<svg id="Layer_2" data-name="Layer 2" xmlns="http://www.w3.org/2000/svg" viewBox="0 0 376.42 273.96">
  <defs>
    <style>
      .cls-1 {
        fill: #fff;
      }
    </style>
  </defs>
  <g id="Layer_1-2" data-name="Layer 1">
    <path class="cls-1" d="M373.7,26.83c-2.77-5.52-8.05-9.55-13.6-12.24-10.11-4.91-20.29-8.69-31.02-12.04-18.06-5.65-36.78-1.73-51.34,10.03-14.62,11.8-23.27,25.7-40.16,32.74-9.25,3.86-18.77,5.85-28.7,7.32-17.79,2.64-34.83,4.8-52.55,8.49-44.87,9.36-90.52,26.88-124.01,58.9-12.18,11.65-21.51,24.89-27.25,40.78-12.18,33.72-2.03,71.5,26.48,93.45,23.08,17.77,54.63,21.46,82.75,19.03,3.84-.34,6.76-3.39,7.48-6.16.84-3.21-1.03-6.38-3.95-8.43-7.92-5.54-32.93-2.14-57.32-19.61-14.46-10.36-23.71-26.79-21.66-44.77,1.8-15.75,12.71-28.42,26.68-35.23,11.26-5.5,23.43-7.69,35.91-7.78,8.38-.05,14.15,6.7,13.78,14.85-.48,10.29-13.04,18-5.92,30.52,2.06,3.6,6.98,8.17,12.91,8.84,12.01,1.37,24.77,1.68,36.68.03,6.89-.96,10.85-8.37,10.6-13.74-.54-11.99-12.56-12.81-21.45-14.43,4.1-7.29,5.57-14.65,6.38-22.95,28.03,1.62,54.78-3.15,80.39-16.05,6.56,32.12,32.37,40.16,61.48,37.49,7.7-.31,13.5-5.85,13.7-13.29.19-6.95-5.13-13.93-12.71-14.01l-11.84-.14c-9.56-.11-16.08-7.79-16.43-17.15-.2-5.19.72-9.69,3.92-13.68,9.94-12.38,22.76-20.85,37.66-26.28,20.15-7.34,43.29-16.82,57.76-32.94,7.84-8.74,10.67-20.99,5.35-31.55ZM321.51,45.79c-5.64,1.33-11.61-2.33-13.3-7.73-1.84-5.88,1.28-12.62,8.21-14.28,6.67-1.61,12.13,2.81,13.43,8.4,1.39,5.99-2.36,12.19-8.34,13.61Z"/>
  </g>
</svg>