<?xml version="1.0" encoding="UTF-8"?>
<svg id="Layer_2" data-name="Layer 2" xmlns="http://www.w3.org/2000/svg" viewBox="0 0 120.04 167.75">
  <defs>
    <style>
      .cls-1 {
        fill: #fff;
      }
    </style>
  </defs>
  <g id="Layer_1-2" data-name="Layer 1">
    <path class="cls-1" d="M117.65,27.24c-7.12-11.68-22.31-16.31-34.72-19.56-2.64-1.58-2.47-4.79-4.63-6.43-2.56-1.93-5.2-1.32-7.6-.19-2.09.97-2.25,3.96-4.01,5.57-2.71,2.49-7.19,1.43-10.22,3.81l3.48,4.45c-2.11,1.65-4.7.55-6.47-.84-6.04-4.75-13.22-3.11-17.51,2.97-1.87,2.64-3,5.17-2.16,8.89,1.42,6.35,12.01,6.37,14.44,8.65-3.84,3.22-7.97,2.12-12.47,2.04-5.59,12.03-12.49,22.42-19.84,33.23C2.49,89.61-3.45,112.98,2.02,136.3c.97-.15,1.22-1.01,2.27-1.29,2.2,10.72,9.39,13.36,14.44,22.64,5.33,3.15,36.71,15.47,38.49,7.42,1.11-5.01-8.99-7.01-11.84-10.16,7.97-5.32,11.31-12.67,11.78-21.42,3.82,7.18,1.21,13.96-1.56,20.54,1.72,1.15,4.56.97,6.52.16,3.03-1.26,33.08,7.94,33.54.97.38-5.55-8.69-6.89-13.44-8.64,22.33-19.95,6.54-33.34,14.11-49.26,3.17,3.54,4.73,8.81,9.23,6.95.91-.37,1.85-1.7,2.24-2.77,3.31-9.22-3.8-15.29-7.69-21.84-4.67-7.88,2.24-17.54,8.66-22.77,8.36-6.82,15-19.54,8.88-29.59ZM83,108.94c-1.96,2.98-5.52,3.75-8.7,3.57-7.17-.4-7.03-7.58-13.76-8.72-6.04-1.02-13.02-3.84-14.83-11.23,6.1,2.85,10.19,6.68,16.95,6.05,6.99-.65,8.68,8.75,13.28,7.73,1.95-.43,2.94-2.34,2.83-4.71-.43-8.99-8.64-13.27-13.04-19.93,10.81,3.22,24.15,16.8,17.27,27.24ZM79.97,33.51c-3.24,0-5.87-2.62-5.87-5.86s2.63-5.87,5.87-5.87,5.87,2.63,5.87,5.87-2.63,5.86-5.87,5.86ZM114.16,36.8c-1.44,1.05-3.18.38-4.93-.59-1.34-.75-3.5-3.33-1.57-4.26,2.18-1.05,4.8-.07,7.8.91,1.4.46-.36,3.25-1.3,3.94Z"/>
  </g>
</svg>