<?xml version="1.0" encoding="UTF-8"?>
<svg id="Layer_2" data-name="Layer 2" xmlns="http://www.w3.org/2000/svg" viewBox="0 0 383.37 336.88">
  <defs>
    <style>
      .cls-1 {
        fill: #fff;
      }
    </style>
  </defs>
  <g id="Layer_1-2" data-name="Layer 1">
    <path class="cls-1" d="M383.37,52.28v7.49l-44.94,155.58c-1.2,4.16-4.01,9.01-9.09,9.02l-197.87.11c-3.25,6.23-6.22,11.33-2.43,17.2,1.36,2.11,4.44,5.12,8.39,5.12l191.93.25c6.01,0,9.36,6.75,9.25,11.4-.11,4.81-3.61,10.63-9.15,10.7l-41.27.49c7.68,1.34,14.13,5.18,19.47,11.12,11.99,13.32,10.94,33.56-1.24,46.03-12.25,12.53-32.42,13.68-45.99,1.97-15.81-13.64-16.14-36.85-.41-51.08,4.68-4.23,10.31-6.62,16.42-8.23l-101.26.03c7.65,1.68,14.12,5.3,19.48,11.28,11.96,13.35,10.95,33.55-1.26,46.04-12.24,12.52-32.42,13.68-45.99,1.97-15.86-13.69-16.09-37.03-.4-51.07,4.66-4.17,10.26-6.87,16.41-8.02l-29.92-.55c-10.53-.19-19.32-7.82-24-15.53-5.94-9.77-6.81-20.32-2.76-30.28,1.6-3.94,3.63-7.17,5.49-11.13L57.97,22.34l-48.84-.22C3.22,22.09,0,15.79,0,10.71,0,6.24,3.6.07,9.13.07L68.93,0c4.55,0,7.73,4.54,8.8,8.34l10.31,36.44,286.83.08c4.47,0,6.34,4.98,8.49,7.41Z"/>
  </g>
</svg>
