<?xml version="1.0" encoding="UTF-8"?>
<svg id="Layer_2" data-name="Layer 2" xmlns="http://www.w3.org/2000/svg" viewBox="0 0 349.61 342.3">
  <defs>
    <style>
      .cls-1 {
        fill: #fff;
      }
    </style>
  </defs>
  <g id="Layer_1-2" data-name="Layer 1">
    <path class="cls-1" d="M303.49,33.95c-9.32-18.97-27.21-30.97-48.32-33.48-30.25-3.61-58.2,13.7-70.23,41.46-3.65,8.42-6.38,16.88-11.63,24.43-9.32,13.39-20.27,24.43-30.93,36.91l-69.1,80.88-26.91,32.08c-2.52,3-3.04,7.17-1.19,10.63,5.23,9.8,56.79,3.43,68.37,1.62,42.14-6.58,83.66-24.4,103.3-64.51,5.09-9.91,6.37-20.23,8.43-31.22,7.75,32.3-9.09,64.45-35.04,82.46-37.25,25.87-76.16,31.12-121.06,31.87L3.09,321.87c-2.24,2.53-3.59,5.47-2.92,8.73.44,2.14,2.43,5.28,5.52,6.56,17.7,7.3,38.1,7.02,55.19-2.1,27.64-14.75,42.5-45.09,63.64-66.86l36.69,1.03,9.21,18.76c-9.79,1.57-19.11,6.36-22.86,15.24-1.63,3.85-.61,8.64,2.62,10.69,9.33,5.93,9.85-7.36,31.19-8.85,15.38-1.07,30.48-.44,45.93-.6,12.05-.12,20.71,9.35,25.98.35,1.99-3.4,1.74-8.12-1.29-11.44-10.59-11.57-24.01-4.71-27.86-11.9-4.05-7.56-8.44-14.97-11.64-23.14,29.58-13.03,54.12-33.65,70.62-61.16,19.36-32.28,20.26-64.86,22.27-100.88.23-4.28,1.84-7.45,5.91-9.03,14.78-5.71,23.64-4.65,38.32-7.8,0-24.04-23.33-43.24-46.12-45.52ZM190.55,285.26c-3.41-5.94-6.02-11.53-8.66-18.16,3.75-1.39,7.27-1.86,11.33-2.44l10.89,20.39c-4.76.83-9,.94-13.56.21ZM260.75,61.03c-8.08,1.38-14.39-4.45-15.46-11.26-1.12-7.17,3.48-14.27,11.12-15.49,7.5-1.2,13.82,3.88,15.26,11.09,1.31,6.58-2.78,14.28-10.92,15.66Z"/>
  </g>
</svg>
