<?xml version="1.0" encoding="UTF-8"?>
<svg id="Layer_2" data-name="Layer 2" xmlns="http://www.w3.org/2000/svg" viewBox="0 0 380.78 341.83">
  <defs>
    <style>
      .cls-1 {
        fill: #fff;
      }
    </style>
  </defs>
  <g id="Layer_1-2" data-name="Layer 1">
    <path class="cls-1" d="M365.32,60.7c-12.42-3.75-28.33-6.63-32.72-19.25-6.24-17.89-20.48-31.46-38.47-37.42-20.16-6.69-51.89-5.53-68.83,7.19-17.66,13.26-30.82,32.26-35.52,53.87-3.6,16.58,6.44,31.58,21.64,36.44,17.93,5.74,34.51-3.29,41.4-20.42,4.66-11.58,6.04-23.41,10.43-36.26,2.49,12.82,1.04,24.93-.97,37.14-3.27,19.85-17.73,35.37-38.92,35.36-9.3,0-17.64-3.22-25.75-7.58-8.47,10.25-25.93,15.82-38.33,17.33l-59.49,7.25c-9.64,1.17-19.17,3.66-28.52,5.72-21.62-6.16-38.67-21.76-49.21-40.89-2.93-5.31-8.27-7.49-13.87-5.8C4.18,94.58-.05,99.44,0,105.1c.22,26.97,18.99,53.96,42.18,67.9-5.05,11.16-7.43,22.48-7.4,34.98l.26,108.62c.04,15.8,13.54,25.7,28.57,25.21,14.32-.48,25.21-10.11,25.4-24.04l.48-35.79c.06-3.86,1.34-6.2,4.61-8.27,33.93-21.42,23.85-37.94,37.81-35.41l76.94,13.97c4.11.75,6.4,1.74,6.85,6.24l6.07,61.67c1.33,13.53,12.44,21.65,25.3,21.65,15.2,0,25.43-10.14,26.56-25,2.23-29.6,4.16-58.46,8.92-87.85l12.91-79.65c1.8-11.12,10.64-17.54,21.74-17.53,9.6.01,19.1-.33,28.21-3.8,19.32-7.36,32.74-25.27,35.21-45.63,1.29-10.65-5.49-18.71-15.3-21.67ZM306.64,68.8c-4.12,1.69-9.7.04-12.11-4.67-2.34-4.58-1.17-11.11,4.64-13.68,5.5-2.43,11.27.13,13.26,5.46,1.68,4.5-.16,10.56-5.79,12.89Z"/>
  </g>
</svg>
