<?xml version="1.0" encoding="UTF-8"?>
<svg id="Layer_2" data-name="Layer 2" xmlns="http://www.w3.org/2000/svg" viewBox="0 0 348.79 241.22">
  <defs>
    <style>
      .cls-1 {
        fill: #fff;
      }
    </style>
  </defs>
  <g id="Layer_1-2" data-name="Layer 1">
    <path class="cls-1" d="M343.26,117.55c-23-29.22-55.03-49.18-91.14-58.6C235.5,29.63,198.7,7.76,166.68.6c-9.79-2.19-19.33,1.8-24.78,8.75-14.43,18.4,4.88,31.74-.84,51.74-24.53,7.47-46.41,19.48-65.77,37.09l-38.77-36.77c-4.63-4.39-9.4-7.58-16.04-7.72-6.95-.14-13.22,3.09-16.61,7.99C-.16,67.5-.46,73.7,1.7,80.39c11.73,36.15,10.21,74.1-.97,110.28-2.5,8.07,1.76,16.1,8.16,19.99,6.27,3.81,15.78,4.62,21.86-1.05l44.8-41.77c30.78,24.45,55.73,37.37,94.73,43.89l3.07,10.87c2.41,8.52,8.82,14.55,15.77,17.03,22.96,8.21,34.49-17.62,51.82-27.39,14.23-6.73,29.75-8.91,44.1-16.34,22.65-11.71,42.91-26.98,58.21-47.43,7.2-9.63,7.59-21.28,0-30.92ZM277.94,133.24c-6.34.86-12.42-3.25-13.8-9.88-1.28-6.2,2.84-13.23,10.39-14.28,7.09-.99,12.89,4.21,13.87,10.03,1.22,7.16-3.59,13.19-10.46,14.13Z"/>
  </g>
</svg>
