<?xml version="1.0" encoding="UTF-8"?>
<svg id="Layer_2" data-name="Layer 2" xmlns="http://www.w3.org/2000/svg" viewBox="0 0 748.51 585.45">
  <defs>
    <style>
      .cls-1 {
        fill: #fff;
      }

      .cls-2 {
        fill: #fefefe;
      }
    </style>
  </defs>
  <g id="Layer_1-2" data-name="Layer 1">
    <g>
      <path d="M210.5,494.51c-18.37,13.65-49.52,27.37-71.01,31.56-5.9,1.26-11.54,1.07-16.93-1.69-7.9,12.26-22.55,39.57-36.55,44.23-14.67,4.89-30.33,5.2-46.06,1.42,5.23-17.43,23.75-27.32,40.54-20.36,8.48-14.58,20.23-25.85,33.64-36.26-1.12-3.49-2.03-7-.48-9.54,1.2-1.96,3.58-5.17,7.05-5.96,9.8-2.23,20.29-7.6,30.69-7.13,19.98.91,39.05,4.2,59.11,3.73Z"/>
      <path d="M373.24,459.83c20.35-10.08,39.63-20.29,59.2-34.11-3.42,16.92-14.05,31.91-28.53,40.91-1.64-5.24-1.01-8.97-3.52-13.08-2.83,3.86-4.09,7.67-5.7,11.8-7.19,18.3-16,35.46-27.66,51.2-4.11,5.55-9.42,8.53-17.26,6.96l-4.93,30.87c-3.42,21.32-23.77,35.04-45.61,30.03-1.36-14.83,9.01-26.99,23.74-28.07,3.53-13.12,7.76-25.33,14.44-37.22-2.63-2.36-6.3-3.87-6.42-7.47-.32-8.97,24.01-33.79,31.12-40.98,3.58-3.62,6.46-8.53,11.13-10.84Z"/>
      <path d="M482.85,459.65c-10.85-5.39-17.94-45.59-17.82-58.81,4.46-6.75,8.02-13.09,10.81-20.8,9.99,9.03,20.17,15.33,32.34,20.29,4.96,15.39,6.66,31.34,3.15,48.02-4.01-6.88-10.88-9.71-17.73-7.53-7.41,2.37-11.1,8.62-10.75,18.83Z"/>
      <path d="M618.06,576.84c-15.78,4.46-31.72,2.57-46.29-2.98-11.38-4.33-16.93-24.98-21.17-36.23-4.67,1.15-10.15,8.96-13.73,2.9l-25.96-43.83c-4.54-7.68-22.74-38.65-16.1-45.4,2.51-2.57,7.05-.29,9.13,2.22,10.57,12.7,21.5,24.09,33.76,35.19,7.38,6.67,36.87,34.78,24.12,44.78,6.2,7.33,12.37,14.14,17.47,22.59,6.97-3.65,14.04-3.63,20.95-.8,8.3,4.27,14.95,11.26,17.82,21.56Z"/>
      <path d="M711.14,375.23l-13.09-7.09-.95-20.19c-.13-2.86.62-5.82,2.81-7.68,14.25-12.03,16.3-32.24,5.99-47.69-4.58-6.86-11.74-11.29-20.56-9.38,7.03,13.45,9.68,28.4,6.59,43.13-5.39-17.28-10.54-34.28-23.47-46.33-9.05-8.43-21.37-11.09-33.3-6.14-40.24,16.69-56.7,62.87-47.29,103.61,4.35,18.86,20.62,26.52,40.03,26.65-8.82,16.93-12.5,38.62,1.84,52.54,2.67,2.59,6.82,4.66,10.5,3.31,5.71-2.09,8.24-7.85,8.09-13.34-.3-11.38-13.45-13.17-14.06-16.57-1.43-7.93,1.74-16.37,6.67-22.38,6.14,5.36,11.43,10.18,18.84,11.88,12.03,2.76,23.32-3.68,29.14-14.23,4.08-7.41,5.4-14.91,7.71-23.68,7.32,2.87,12.76,6.85,16.27,12.77,3.18,5.34-5.7,13.28,1.18,23.36,4.33,6.34,13.47,7.87,18.14,3.38,7.83-7.54-1.8-35.5-21.08-45.93ZM636.69,359.55c-2.52,5.59-7.1,8.57-11.74,9.66-5.44,1.27-10.97-.46-15.33-4.58-9.14-8.65-12.41-22.94-7.47-34.49,2.25-5.26,6.46-8.92,10.96-10.17,5.27-1.47,10.76-.22,15.2,3.33,10.56,8.42,14.11,23.53,8.38,36.25Z"/>
      <g>
        <g>
          <g>
            <path class="cls-2" d="M618.06,576.84c-15.78,4.46-31.72,2.57-46.29-2.98-11.38-4.33-16.93-24.98-21.17-36.23-4.67,1.15-10.15,8.96-13.73,2.9l-25.96-43.83c-4.54-7.68-22.74-38.65-16.1-45.4,2.51-2.57,7.05-.29,9.13,2.22,10.57,12.7,21.5,24.09,33.76,35.19,7.38,6.67,36.87,34.78,24.12,44.78,6.2,7.33,12.37,14.14,17.47,22.59,6.97-3.65,14.04-3.63,20.95-.8,8.3,4.27,14.95,11.26,17.82,21.56Z"/>
            <path class="cls-2" d="M511.33,448.35c-4.01-6.88-10.88-9.71-17.73-7.53-7.41,2.37-11.1,8.62-10.75,18.83-10.85-5.39-17.94-45.59-17.82-58.81,4.46-6.75,8.02-13.09,10.81-20.8,9.99,9.03,20.17,15.33,32.34,20.29,4.96,15.39,6.66,31.34,3.15,48.02Z"/>
          </g>
          <g>
            <path class="cls-2" d="M432.44,425.72c-3.42,16.92-14.05,31.91-28.53,40.91-1.64-5.24-1.01-8.97-3.52-13.08-2.83,3.86-4.09,7.67-5.7,11.8-7.19,18.3-16,35.46-27.66,51.2-4.11,5.55-9.42,8.53-17.26,6.96l-4.93,30.87c-3.42,21.32-23.77,35.04-45.61,30.03-1.36-14.83,9.01-26.99,23.74-28.07,3.53-13.12,7.76-25.33,14.44-37.22-2.63-2.36-6.3-3.87-6.42-7.47-.32-8.97,24.01-33.79,31.12-40.98,3.58-3.62,6.46-8.53,11.13-10.84,20.35-10.08,39.63-20.29,59.2-34.11Z"/>
            <path class="cls-2" d="M210.5,494.51c-18.37,13.65-49.52,27.37-71.01,31.56-5.9,1.26-11.54,1.07-16.93-1.69-7.9,12.26-22.55,39.57-36.55,44.23-14.67,4.89-30.33,5.2-46.06,1.42,5.23-17.43,23.75-27.32,40.54-20.36,8.48-14.58,20.23-25.85,33.64-36.26-1.12-3.49-2.03-7-.48-9.54,1.2-1.96,3.58-5.17,7.05-5.96,9.8-2.23,20.29-7.6,30.69-7.13,19.98.91,39.05,4.2,59.11,3.73Z"/>
          </g>
        </g>
        <g>
          <path class="cls-1" d="M738.84,68.42c-9.14,5.86-20.27,5.94-30.64,1.65-36.05,18.63-67.49,64.01-84.14,100.64,18,22.41,35.3,53.94,40.7,82.5-34.52-12.66-71.07,16.37-86.26,44.81-13.77,25.24-17.16,53.62-10.74,82.24-36.85,8.44-74.8-2.41-91.32-38.38-14.07-30.64-11.27-77.84-3.42-110.24,4.68-19.28,12.01-36.69,22.9-53.07,19.4-27.97,47.17-45.48,82.59-38.44,1.71-43.12,12.71-83.75,35.46-119.56,6.35-10.04,23.39-27.75,35.35-17.47,6.22,5.35,6.87,14.23,3.65,21.53-5.08,11.56-15.78,18.13-28.28,19.39-18.61,25.48-27.84,64.39-30.9,95-1.09,10.87-1.91,21.08-.15,32.35,2.72-7.09,4.15-13.91,7.77-20.83l12.27,8.54c20.35-45.81,51.55-88.99,95.33-114.26,7.62-4.4,15.57-7.44,24.17-7.31,5.65.08,11.65,2.58,13.92,7.8,3.78,8.71-.41,18.06-8.26,23.11Z"/>
          <path class="cls-2" d="M711.14,375.23l-13.09-7.09-.95-20.19c-.13-2.86.62-5.82,2.81-7.68,14.25-12.03,16.3-32.24,5.99-47.69-4.58-6.86-11.74-11.29-20.56-9.38,7.03,13.45,9.68,28.4,6.59,43.13-5.39-17.28-10.54-34.28-23.47-46.33-9.05-8.43-21.37-11.09-33.3-6.14-40.24,16.69-56.7,62.87-47.29,103.61,4.35,18.86,20.62,26.52,40.03,26.65-8.82,16.93-12.5,38.62,1.84,52.54,2.67,2.59,6.82,4.66,10.5,3.31,5.71-2.09,8.24-7.85,8.09-13.34-.3-11.38-13.45-13.17-14.06-16.57-1.43-7.93,1.74-16.37,6.67-22.38,6.14,5.36,11.43,10.18,18.84,11.88,12.03,2.76,23.32-3.68,29.14-14.23,4.08-7.41,5.4-14.91,7.71-23.68,7.32,2.87,12.76,6.85,16.27,12.77,3.18,5.34-5.7,13.28,1.18,23.36,4.33,6.34,13.47,7.87,18.14,3.38,7.83-7.54-1.8-35.5-21.08-45.93ZM636.69,359.55c-2.52,5.59-7.1,8.57-11.74,9.66-5.44,1.27-10.97-.46-15.33-4.58-9.14-8.65-12.41-22.94-7.47-34.49,2.25-5.26,6.46-8.92,10.96-10.17,5.27-1.47,10.76-.22,15.2,3.33,10.56,8.42,14.11,23.53,8.38,36.25Z"/>
        </g>
        <path class="cls-1" d="M542.64,86.61c-35.45-34.41-78.68-59.03-126.61-72.24-125.61-34.61-255.53,8.22-339.34,106.82C31.87,173.94,5.08,238.74.75,308.05c-1.42,22.83-1.11,44.76,3.47,67.11,5.97,29.17,26.27,50.35,51.46,64.64,40.22,22.83,89.65,32.78,135.86,34.62,73.59,2.93,146.22-14.47,209.64-51.53,16.25-9.5,30.79-19.92,44.31-32.8,10.4-9.92,14.23-23.12,10.01-37.21-4.16-13.88-7.96-27.26-10.19-41.99-6.8-52.65,5.48-116.61,41.83-158.07-15.58-15.39-31.26-29.07-49.64-41.56-108.21-73.53-249.59-57.61-338.43,37.22-44.36,47.35-70.63,107.35-80.08,170.64-1.3-4.69-.1-8.43.15-13.27,2.42-47.03,17.82-92.33,42.99-132.15,29.61-46.83,71.42-84.19,121.61-107.52,40.22-18.69,83.47-26.14,127.75-22.95,74.28,5.33,141.43,39.35,193.15,93.05,17.82-13.46,38.36-19.32,61.08-19.14-5.66-12.17-14.21-21-23.08-30.53ZM372.24,111.63c21.52-11.01,48.82-.74,58.05,21.37,4.12,9.88,3.51,20.12-2.14,29.6-4.25,7.12-12.86,13.02-23.34,14.34-19.93,2.53-39-7.76-46.03-25.91-5.79-14.92-1.03-31.99,13.46-39.4ZM322.13,278.25c22.53,0,40.79,18.26,40.79,40.79s-18.26,40.8-40.79,40.8-40.8-18.27-40.8-40.8,18.27-40.79,40.8-40.79ZM242.3,143.31c20.93-1.03,38.17,13.76,39.4,34.79,1.47,24.9-16.93,47.82-42.62,50.11-21.39,1.9-38.65-12.68-40.68-33.24-2.62-26.47,17.39-50.34,43.9-51.66ZM97.24,195.74c.66-19.19,14.63-37.41,33.1-42.4,6.14-1.65,12.27-.4,16.78,3.23,14.44,11.64,3.28,48.51-25.64,57.61-6.54,2.06-12.97.78-17.59-2.94-3.97-3.19-6.87-8.95-6.65-15.5ZM89.87,310.44c5.97-8.72,15.43-13.55,25.43-13.93,10.08-.38,19.66,4.26,26.13,12.65,11.86,15.36,12.94,37.16,1.05,53.12-11.9,15.98-32.81,17.67-47.1,4.46-15.55-14.38-17.53-38.77-5.51-56.3ZM471.66,60.92c-2.19,3.96-8.05,4.67-12.32,4.53-17.82-.61-34.92-8.23-47.22-20.84-2.85-2.92-5.07-7.68-3.19-11.25,1.97-3.73,7.26-4.93,11.61-4.7,17.53.95,34.57,7.9,47.28,19.74,3.27,3.04,6.29,8.11,3.84,12.52Z"/>
      </g>
    </g>
  </g>
</svg>
