<?xml version="1.0" encoding="UTF-8"?>
<svg id="Layer_2" data-name="Layer 2" xmlns="http://www.w3.org/2000/svg" viewBox="0 0 749.5 586.45">
  <defs>
    <style>
      .cls-1 {
        fill: #fff;
        stroke: #000;
        stroke-miterlimit: 10;
      }
    </style>
  </defs>
  <g id="Layer_1-2" data-name="Layer 1">
    <path class="cls-1" d="M211,495.01c-18.37,13.65-49.52,27.37-71.01,31.56-5.9,1.26-11.54,1.07-16.93-1.69-7.9,12.26-22.55,39.57-36.55,44.23-14.67,4.89-30.33,5.2-46.06,1.42,5.23-17.43,23.75-27.32,40.54-20.36,8.47-14.58,20.23-25.86,33.64-36.26-1.09-3.55-2.05-6.97-.48-9.54,1.2-1.96,3.58-5.17,7.05-5.96,9.8-2.23,20.29-7.6,30.69-7.13,19.98.91,39.05,4.2,59.11,3.73Z"/>
    <path class="cls-1" d="M373.74,460.33c20.35-10.08,39.63-20.29,59.2-34.11-3.42,16.92-14.05,31.91-28.53,40.91-1.64-5.24-1.01-8.97-3.52-13.08-2.83,3.86-4.09,7.67-5.7,11.8-7.19,18.3-16,35.46-27.66,51.2-4.11,5.55-9.42,8.53-17.26,6.96l-4.93,30.87c-3.42,21.32-23.77,35.04-45.61,30.03-1.36-14.83,9.01-26.99,23.74-28.07,3.53-13.12,7.76-25.33,14.44-37.22-2.63-2.36-6.3-3.87-6.42-7.47-.32-8.97,24.01-33.78,31.12-40.98,3.58-3.62,6.46-8.53,11.13-10.84Z"/>
    <path class="cls-1" d="M483.35,460.15c-10.85-5.39-17.94-45.59-17.82-58.81,4.46-6.75,8.02-13.08,10.81-20.8,9.99,9.02,20.17,15.33,32.34,20.29,4.96,15.39,6.66,31.34,3.15,48.02-4.01-6.88-10.88-9.71-17.73-7.53-7.41,2.37-11.1,8.62-10.75,18.83Z"/>
    <path class="cls-1" d="M19.7,308.07v-.05c.02-.84.04-1.69.05-2.53-1.28-2.05-.91,12.05-.48,13.13,1.26-2,.9-4.17,1.67-6.13-.88-1.22-1.17-2.82-1.24-4.42Z"/>
    <path class="cls-1" d="M618.56,577.34c-15.78,4.46-31.72,2.57-46.29-2.98-11.38-4.33-16.93-24.98-21.17-36.23-4.67,1.15-10.15,8.96-13.73,2.9l-25.96-43.83c-4.54-7.68-22.74-38.65-16.1-45.4,2.51-2.57,7.05-.29,9.13,2.22,10.57,12.7,21.5,24.09,33.76,35.19,7.38,6.67,36.87,34.79,24.12,44.78,6.2,7.33,12.37,14.14,17.47,22.59,6.97-3.65,14.04-3.63,20.95-.8,8.3,4.27,14.95,11.26,17.82,21.56Z"/>
    <path class="cls-1" d="M711.64,375.73l-13.09-7.09-.95-20.19c-.13-2.86.62-5.82,2.81-7.68,14.25-12.03,16.3-32.24,5.99-47.69-4.58-6.86-11.74-11.29-20.56-9.38,7.03,13.45,9.68,28.4,6.59,43.13-5.4-17.28-10.54-34.28-23.47-46.33-9.05-8.43-21.37-11.09-33.3-6.14-40.24,16.69-56.7,62.87-47.29,103.61,4.35,18.86,20.62,26.52,40.03,26.65-8.82,16.93-12.5,38.62,1.84,52.54,2.67,2.59,6.82,4.66,10.5,3.31,5.71-2.09,8.24-7.85,8.09-13.34-.3-11.38-13.45-13.17-14.06-16.57-1.43-7.93,1.74-16.37,6.67-22.38,6.14,5.36,11.43,10.18,18.84,11.88,12.03,2.76,23.32-3.68,29.14-14.23,4.08-7.41,5.4-14.91,7.71-23.68,7.32,2.87,12.76,6.85,16.27,12.77,3.18,5.34-5.7,13.28,1.18,23.36,4.33,6.34,13.47,7.87,18.14,3.38,7.83-7.54-1.8-35.5-21.08-45.93ZM637.19,360.05c-2.52,5.59-7.1,8.57-11.74,9.66-5.44,1.27-10.97-.46-15.33-4.58-9.14-8.65-12.41-22.95-7.47-34.49,2.25-5.26,6.46-8.92,10.96-10.17,5.27-1.47,10.76-.22,15.2,3.33,10.56,8.42,14.11,23.53,8.38,36.25Z"/>
    <path class="cls-1" d="M432.94,426.22c-3.42,16.92-14.05,31.91-28.53,40.91-1.64-5.24-1.01-8.97-3.52-13.08-2.83,3.86-4.09,7.67-5.7,11.8-7.19,18.3-16,35.46-27.66,51.2-4.11,5.55-9.42,8.53-17.26,6.96l-4.93,30.87c-3.42,21.32-23.77,35.04-45.61,30.03-1.36-14.83,9.01-26.99,23.74-28.07,3.53-13.12,7.76-25.33,14.44-37.22-2.63-2.36-6.3-3.87-6.42-7.47-.32-8.97,24.01-33.78,31.12-40.98,3.58-3.62,6.46-8.53,11.13-10.84,20.35-10.08,39.63-20.29,59.2-34.11Z"/>
    <path class="cls-1" d="M211,495.01c-18.37,13.65-49.52,27.37-71.01,31.56-5.9,1.26-11.54,1.07-16.93-1.69-7.9,12.26-22.55,39.57-36.55,44.23-14.67,4.89-30.33,5.2-46.06,1.42,5.23-17.43,23.75-27.32,40.54-20.36,8.47-14.58,20.23-25.86,33.64-36.26-1.09-3.55-2.05-6.97-.48-9.54,1.2-1.96,3.58-5.17,7.05-5.96,9.8-2.23,20.29-7.6,30.69-7.13,19.98.91,39.05,4.2,59.11,3.73Z"/>
    <path class="cls-1" d="M618.56,577.34c-15.78,4.46-31.72,2.57-46.29-2.98-11.38-4.33-16.93-24.98-21.17-36.23-4.67,1.15-10.15,8.96-13.73,2.9l-25.96-43.83c-4.54-7.68-22.74-38.65-16.1-45.4,2.51-2.57,7.05-.29,9.13,2.22,10.57,12.7,21.5,24.09,33.76,35.19,7.38,6.67,36.87,34.79,24.12,44.78,6.2,7.33,12.37,14.14,17.47,22.59,6.97-3.65,14.04-3.63,20.95-.8,8.3,4.27,14.95,11.26,17.82,21.56Z"/>
    <path class="cls-1" d="M511.83,448.85c-4.01-6.88-10.88-9.71-17.73-7.53-7.41,2.37-11.1,8.62-10.75,18.83-10.85-5.39-17.94-45.59-17.82-58.81,4.46-6.75,8.02-13.08,10.81-20.8,9.99,9.02,20.17,15.33,32.34,20.29,4.96,15.39,6.66,31.34,3.15,48.02Z"/>
    <path class="cls-1" d="M19.43,315.64c.12-2.53.22-5.05.27-7.57v-.05c.02-.84.04-1.69.05-2.53-1.28-2.05-.91,12.05-.48,13.13,1.26-2,.9-4.17,1.67-6.13-.76.71-1.27,1.76-1.51,3.15Z"/>
    <path class="cls-1" d="M542.64,86.62c-35.58-34.35-78.89-58.87-126.88-71.96-125.66-34.28-255.41,8.81-339.01,107.55C32.19,174.86,5.57,239.48,1.25,308.54c-1.43,22.84-1.11,44.77,3.47,67.12,5.97,29.17,26.27,50.35,51.46,64.64,40.22,22.83,89.65,32.78,135.86,34.62,73.59,2.93,146.22-14.47,209.64-51.53,16.19-9.46,30.67-19.87,44.13-32.61,10.55-9.99,14.37-23.15,10.21-37.41-4.05-13.86-8.25-27.24-10.11-42-6.75-53.34,5.15-115.93,41.71-158.05-15.34-15.23-31.03-28.81-48.7-40.94-108.43-74.41-251.31-58.54-340.47,37.79-38.83,41.96-64.18,94.28-75.43,150.15-.93,4.61-2.3,8.12-2.08,12.17-.77,1.96-.41,4.13-1.67,6.13-.43-1.08-.8-15.18.48-13.13-.04.81-.07,1.67-.05,2.53v.05c.07,1.6.36,3.2,1.24,4.42Z"/>
    <path class="cls-1" d="M20.94,312.49c-.77,1.96-.41,4.13-1.67,6.13-.43-1.08-.8-15.18.48-13.13-.04.81-.07,1.67-.05,2.53v.05c.07,1.6.36,3.2,1.24,4.42Z"/>
    <path class="cls-1" d="M738.73,69.3c-8.4,5.08-18.33,5.44-27.81,2.12-1.46-.51-3.08-.41-4.43.34-34.1,18.76-63.84,61.02-80.46,96.3-.89,1.89-.68,4.12.6,5.76,15.34,19.76,29.86,45.85,36.53,70.71,1.05,3.93-2.33,7.61-6.34,6.89-31.88-5.66-63.86,20.97-77.81,47.09-12.91,23.66-16.7,50.09-11.83,76.88.55,3.01-1.4,5.94-4.41,6.47-35.07,6.19-70.12-5.31-85.82-39.49-14.07-30.64-11.27-77.84-3.42-110.24,4.68-19.28,12.01-36.69,22.9-53.07,18.3-26.39,44.05-43.47,76.65-39.4,3.18.4,6.05-1.94,6.24-5.14,2.47-40.84,13.48-79.34,35.15-113.46,6.36-10.05,23.41-27.78,35.39-17.44,6.19,5.35,6.82,14.21,3.61,21.5-4.77,10.86-14.5,17.31-26.02,19.1-1.48.23-2.81,1.03-3.67,2.26-17.67,25.48-26.52,63.2-29.5,93.03-.73,7.25,8.37,13.76,14.51,17.28,2.81,1.61,6.4.47,7.76-2.46,20.44-44,51.22-85.23,93.6-109.38,7.69-4.38,15.76-7.29,24.33-6.9,5.68.26,11.42,3.07,13.4,8.37,3.32,8.93-1.13,18.02-9.16,22.87Z"/>
    <path class="cls-1" d="M711.64,375.73l-13.09-7.09-.95-20.19c-.13-2.86.62-5.82,2.81-7.68,14.25-12.03,16.3-32.24,5.99-47.69-4.58-6.86-11.74-11.29-20.56-9.38,7.03,13.45,9.68,28.4,6.59,43.13-5.4-17.28-10.54-34.28-23.47-46.33-9.05-8.43-21.37-11.09-33.3-6.14-40.24,16.69-56.7,62.87-47.29,103.61,4.35,18.86,20.62,26.52,40.03,26.65-8.82,16.93-12.5,38.62,1.84,52.54,2.67,2.59,6.82,4.66,10.5,3.31,5.71-2.09,8.24-7.85,8.09-13.34-.3-11.38-13.45-13.17-14.06-16.57-1.43-7.93,1.74-16.37,6.67-22.38,6.14,5.36,11.43,10.18,18.84,11.88,12.03,2.76,23.32-3.68,29.14-14.23,4.08-7.41,5.4-14.91,7.71-23.68,7.32,2.87,12.76,6.85,16.27,12.77,3.18,5.34-5.7,13.28,1.18,23.36,4.33,6.34,13.47,7.87,18.14,3.38,7.83-7.54-1.8-35.5-21.08-45.93ZM637.19,360.05c-2.52,5.59-7.1,8.57-11.74,9.66-5.44,1.27-10.97-.46-15.33-4.58-9.14-8.65-12.41-22.95-7.47-34.49,2.25-5.26,6.46-8.92,10.96-10.17,5.27-1.47,10.76-.22,15.2,3.33,10.56,8.42,14.11,23.53,8.38,36.25Z"/>
  </g>
</svg>
